<svg xmlns="http://www.w3.org/2000/svg" viewBox="0 0 400 240" width="400" height="240">
  <defs>
    <linearGradient id="dw" x1="0%" y1="0%" x2="0%" y2="100%"><stop offset="0%" stop-color="#e8dcc8"/><stop offset="100%" stop-color="#d8c8a8"/></linearGradient>
    <linearGradient id="df" x1="0%" y1="0%" x2="100%" y2="0%"><stop offset="0%" stop-color="#c8a86a"/><stop offset="100%" stop-color="#a88848"/></linearGradient>
    <linearGradient id="ds" x1="0%" y1="0%" x2="0%" y2="100%"><stop offset="0%" stop-color="#FF7043"/><stop offset="40%" stop-color="#FF9800"/><stop offset="100%" stop-color="#FFD54F"/></linearGradient>
    <linearGradient id="db" x1="0%" y1="0%" x2="0%" y2="100%"><stop offset="0%" stop-color="#fdf6e3"/><stop offset="100%" stop-color="#ede0c4"/></linearGradient>
  </defs>
  <rect width="400" height="240" fill="url(#dw)"/>
  <rect y="188" width="400" height="52" fill="url(#df)"/>
  <line x1="0" y1="202" x2="400" y2="202" stroke="#8B6914" stroke-width="0.8" opacity="0.5"/>
  <line x1="0" y1="222" x2="400" y2="222" stroke="#8B6914" stroke-width="0.8" opacity="0.5"/>
  <!-- Balcony sliding door -->
  <rect x="258" y="12" width="132" height="178" rx="3" fill="url(#ds)"/>
  <circle cx="322" cy="52" r="20" fill="#FFD700" opacity="0.92"/>
  <rect x="263" y="138" width="14" height="38" fill="#333" opacity="0.6"/>
  <rect x="280" y="128" width="16" height="48" fill="#333" opacity="0.6"/>
  <rect x="330" y="133" width="18" height="43" fill="#333" opacity="0.6"/>
  <rect x="356" y="140" width="12" height="36" fill="#333" opacity="0.5"/>
  <rect x="258" y="12" width="132" height="178" rx="3" fill="none" stroke="#8B7355" stroke-width="5"/>
  <line x1="324" y1="12" x2="324" y2="190" stroke="#8B7355" stroke-width="4"/>
  <circle cx="314" cy="104" r="4" fill="#D4A017"/>
  <circle cx="334" cy="104" r="4" fill="#D4A017"/>
  <path d="M256 10 Q243 100 250 190" fill="#8B4513" opacity="0.72"/>
  <path d="M390 10 Q403 100 396 190" fill="#8B4513" opacity="0.72"/>
  <!-- Headboard - tufted -->
  <rect x="18" y="78" width="220" height="82" rx="10" fill="#2C1810"/>
  <rect x="26" y="85" width="204" height="68" rx="8" fill="#3D2214"/>
  <circle cx="60" cy="106" r="5" fill="#1a0a00"/>
  <circle cx="108" cy="106" r="5" fill="#1a0a00"/>
  <circle cx="156" cy="106" r="5" fill="#1a0a00"/>
  <circle cx="60" cy="138" r="5" fill="#1a0a00"/>
  <circle cx="108" cy="138" r="5" fill="#1a0a00"/>
  <circle cx="156" cy="138" r="5" fill="#1a0a00"/>
  <!-- Bed -->
  <rect x="12" y="155" width="230" height="40" rx="5" fill="#1E0F08"/>
  <rect x="16" y="148" width="222" height="48" rx="7" fill="url(#db)"/>
  <rect x="24" y="152" width="82" height="28" rx="9" fill="white"/>
  <rect x="27" y="155" width="76" height="22" rx="8" fill="#FAFAFA"/>
  <rect x="122" y="152" width="82" height="28" rx="9" fill="white"/>
  <rect x="125" y="155" width="76" height="22" rx="8" fill="#FAFAFA"/>
  <rect x="16" y="170" width="222" height="26" rx="5" fill="#1B4F72" opacity="0.93"/>
  <rect x="16" y="170" width="222" height="3" rx="1" fill="#FFD700" opacity="0.65"/>
  <!-- Nightstand + crystal lamp -->
  <rect x="0" y="158" width="14" height="36" rx="3" fill="#2C1810"/>
  <rect x="1" y="159" width="12" height="34" rx="2" fill="#3D2214"/>
  <rect x="3" y="142" width="8" height="17" fill="#5D4E37"/>
  <path d="M-1 142 Q7 127 15 142" fill="#FFFDE7" opacity="0.92"/>
  <ellipse cx="7" cy="127" rx="8" ry="3" fill="#FFF9C4"/>
  <!-- Chandelier -->
  <line x1="140" y1="0" x2="140" y2="16" stroke="#8B7355" stroke-width="3"/>
  <ellipse cx="140" cy="18" rx="26" ry="8" fill="#D4A017" opacity="0.85"/>
  <line x1="116" y1="18" x2="110" y2="30" stroke="#D4A017" stroke-width="2"/>
  <line x1="140" y1="18" x2="140" y2="32" stroke="#D4A017" stroke-width="2"/>
  <line x1="164" y1="18" x2="170" y2="30" stroke="#D4A017" stroke-width="2"/>
  <circle cx="110" cy="33" r="4" fill="#FFF9C4" opacity="0.95"/>
  <circle cx="140" cy="35" r="4" fill="#FFF9C4" opacity="0.95"/>
  <circle cx="170" cy="33" r="4" fill="#FFF9C4" opacity="0.95"/>
  <!-- Badge -->
  <rect x="8" y="8" width="158" height="33" rx="6" fill="#1a1a2e" opacity="0.93"/>
  <text x="18" y="21" font-family="Georgia,serif" font-size="9" fill="#FFD700" font-weight="bold">DELUXE ROOM</text>
  <text x="18" y="34" font-family="Arial,sans-serif" font-size="8" fill="#aaa">Balcony · Sunset View · Mini Bar</text>
</svg>
